<mxfile host="app.diagrams.net" modified="2024-06-19T12:53:57.121Z" agent="Mozilla/5.0 (Windows NT 10.0; Win64; x64) AppleWebKit/537.36 (KHTML, like Gecko) Chrome/126.0.0.0 Safari/537.36 Edg/126.0.0.0" etag="ivJN874ruKEm3yZpKCly" version="24.5.5" type="github">
  <diagram name="Página-1" id="-Nbuqv1Fr_TWL1hPOY4e">
    <mxGraphModel dx="1066" dy="613" grid="1" gridSize="10" guides="1" tooltips="1" connect="1" arrows="1" fold="1" page="1" pageScale="1" pageWidth="827" pageHeight="1169" math="0" shadow="0">
      <root>
        <mxCell id="0" />
        <mxCell id="1" parent="0" />
        <mxCell id="xklGR3EyqK50y4K4-iU5-8" value="" style="edgeStyle=orthogonalEdgeStyle;rounded=0;orthogonalLoop=1;jettySize=auto;html=1;" parent="1" source="xklGR3EyqK50y4K4-iU5-1" target="xklGR3EyqK50y4K4-iU5-7" edge="1">
          <mxGeometry relative="1" as="geometry" />
        </mxCell>
        <mxCell id="xklGR3EyqK50y4K4-iU5-1" value="Acessar o site do Sap Ariba&quot;" style="rounded=1;whiteSpace=wrap;html=1;" parent="1" vertex="1">
          <mxGeometry x="80" y="80" width="140" height="70" as="geometry" />
        </mxCell>
        <mxCell id="xklGR3EyqK50y4K4-iU5-10" value="" style="edgeStyle=orthogonalEdgeStyle;rounded=0;orthogonalLoop=1;jettySize=auto;html=1;" parent="1" source="xklGR3EyqK50y4K4-iU5-7" target="xklGR3EyqK50y4K4-iU5-9" edge="1">
          <mxGeometry relative="1" as="geometry" />
        </mxCell>
        <mxCell id="xklGR3EyqK50y4K4-iU5-7" value="&lt;b&gt;https://brf-t.sourcing.ariba.com/&lt;/b&gt;" style="rounded=1;whiteSpace=wrap;html=1;" parent="1" vertex="1">
          <mxGeometry x="274" y="80" width="140" height="70" as="geometry" />
        </mxCell>
        <mxCell id="xklGR3EyqK50y4K4-iU5-12" value="" style="edgeStyle=orthogonalEdgeStyle;rounded=0;orthogonalLoop=1;jettySize=auto;html=1;" parent="1" source="xklGR3EyqK50y4K4-iU5-9" target="xklGR3EyqK50y4K4-iU5-11" edge="1">
          <mxGeometry relative="1" as="geometry" />
        </mxCell>
        <mxCell id="xklGR3EyqK50y4K4-iU5-9" value="Gerenciar" style="rounded=1;whiteSpace=wrap;html=1;" parent="1" vertex="1">
          <mxGeometry x="450" y="80" width="140" height="70" as="geometry" />
        </mxCell>
        <mxCell id="xklGR3EyqK50y4K4-iU5-14" value="" style="edgeStyle=orthogonalEdgeStyle;rounded=0;orthogonalLoop=1;jettySize=auto;html=1;" parent="1" source="xklGR3EyqK50y4K4-iU5-11" target="xklGR3EyqK50y4K4-iU5-13" edge="1">
          <mxGeometry relative="1" as="geometry" />
        </mxCell>
        <mxCell id="xklGR3EyqK50y4K4-iU5-11" value="Administração Principal" style="rounded=1;whiteSpace=wrap;html=1;" parent="1" vertex="1">
          <mxGeometry x="630" y="80" width="140" height="70" as="geometry" />
        </mxCell>
        <mxCell id="xklGR3EyqK50y4K4-iU5-17" style="edgeStyle=orthogonalEdgeStyle;rounded=0;orthogonalLoop=1;jettySize=auto;html=1;" parent="1" target="xklGR3EyqK50y4K4-iU5-15" edge="1">
          <mxGeometry relative="1" as="geometry">
            <mxPoint x="140.00000000000003" y="185" as="targetPoint" />
            <mxPoint x="932.02" y="100" as="sourcePoint" />
            <Array as="points">
              <mxPoint x="932" y="120" />
              <mxPoint x="960" y="120" />
              <mxPoint x="960" y="185" />
              <mxPoint x="150" y="185" />
            </Array>
          </mxGeometry>
        </mxCell>
        <mxCell id="xklGR3EyqK50y4K4-iU5-13" value="Gerenciador de Sites" style="rounded=1;whiteSpace=wrap;html=1;" parent="1" vertex="1">
          <mxGeometry x="810" y="80" width="140" height="70" as="geometry" />
        </mxCell>
        <mxCell id="xklGR3EyqK50y4K4-iU5-19" value="" style="edgeStyle=orthogonalEdgeStyle;rounded=0;orthogonalLoop=1;jettySize=auto;html=1;" parent="1" source="xklGR3EyqK50y4K4-iU5-15" target="xklGR3EyqK50y4K4-iU5-18" edge="1">
          <mxGeometry relative="1" as="geometry" />
        </mxCell>
        <mxCell id="xklGR3EyqK50y4K4-iU5-15" value="Importação/Exportação de Dados" style="rounded=1;whiteSpace=wrap;html=1;" parent="1" vertex="1">
          <mxGeometry x="80" y="200" width="140" height="70" as="geometry" />
        </mxCell>
        <mxCell id="xklGR3EyqK50y4K4-iU5-21" value="" style="edgeStyle=orthogonalEdgeStyle;rounded=0;orthogonalLoop=1;jettySize=auto;html=1;" parent="1" source="xklGR3EyqK50y4K4-iU5-18" target="xklGR3EyqK50y4K4-iU5-20" edge="1">
          <mxGeometry relative="1" as="geometry" />
        </mxCell>
        <mxCell id="xklGR3EyqK50y4K4-iU5-18" value="Selecionar na barra de pesquisa a planilha que deseja baixar" style="rounded=1;whiteSpace=wrap;html=1;" parent="1" vertex="1">
          <mxGeometry x="274" y="200" width="140" height="70" as="geometry" />
        </mxCell>
        <mxCell id="xklGR3EyqK50y4K4-iU5-25" value="" style="edgeStyle=orthogonalEdgeStyle;rounded=0;orthogonalLoop=1;jettySize=auto;html=1;" parent="1" source="xklGR3EyqK50y4K4-iU5-20" target="xklGR3EyqK50y4K4-iU5-24" edge="1">
          <mxGeometry relative="1" as="geometry" />
        </mxCell>
        <mxCell id="xklGR3EyqK50y4K4-iU5-20" value="Exportar mapeamentos de grupos de usuários" style="rounded=1;whiteSpace=wrap;html=1;" parent="1" vertex="1">
          <mxGeometry x="450" y="200" width="140" height="70" as="geometry" />
        </mxCell>
        <mxCell id="btMj1ztMAgMaOOfJKISs-1" value="" style="edgeStyle=orthogonalEdgeStyle;rounded=0;orthogonalLoop=1;jettySize=auto;html=1;" edge="1" parent="1" source="xklGR3EyqK50y4K4-iU5-24" target="xklGR3EyqK50y4K4-iU5-26">
          <mxGeometry relative="1" as="geometry" />
        </mxCell>
        <mxCell id="xklGR3EyqK50y4K4-iU5-24" value="Exportar relações de grupos/subgrupos" style="rounded=1;whiteSpace=wrap;html=1;" parent="1" vertex="1">
          <mxGeometry x="630" y="200" width="140" height="70" as="geometry" />
        </mxCell>
        <mxCell id="xklGR3EyqK50y4K4-iU5-26" value="" style="rounded=1;whiteSpace=wrap;html=1;" parent="1" vertex="1">
          <mxGeometry x="810" y="200" width="140" height="70" as="geometry" />
        </mxCell>
        <mxCell id="xklGR3EyqK50y4K4-iU5-27" value="" style="edgeStyle=orthogonalEdgeStyle;rounded=0;orthogonalLoop=1;jettySize=auto;html=1;" parent="1" source="xklGR3EyqK50y4K4-iU5-28" target="xklGR3EyqK50y4K4-iU5-30" edge="1">
          <mxGeometry relative="1" as="geometry" />
        </mxCell>
        <mxCell id="xklGR3EyqK50y4K4-iU5-28" value="" style="rounded=1;whiteSpace=wrap;html=1;" parent="1" vertex="1">
          <mxGeometry x="80" y="310" width="140" height="70" as="geometry" />
        </mxCell>
        <mxCell id="xklGR3EyqK50y4K4-iU5-29" value="" style="edgeStyle=orthogonalEdgeStyle;rounded=0;orthogonalLoop=1;jettySize=auto;html=1;" parent="1" source="xklGR3EyqK50y4K4-iU5-30" target="xklGR3EyqK50y4K4-iU5-32" edge="1">
          <mxGeometry relative="1" as="geometry" />
        </mxCell>
        <mxCell id="xklGR3EyqK50y4K4-iU5-30" value="" style="rounded=1;whiteSpace=wrap;html=1;" parent="1" vertex="1">
          <mxGeometry x="274" y="310" width="140" height="70" as="geometry" />
        </mxCell>
        <mxCell id="xklGR3EyqK50y4K4-iU5-31" value="" style="edgeStyle=orthogonalEdgeStyle;rounded=0;orthogonalLoop=1;jettySize=auto;html=1;" parent="1" source="xklGR3EyqK50y4K4-iU5-32" target="xklGR3EyqK50y4K4-iU5-34" edge="1">
          <mxGeometry relative="1" as="geometry" />
        </mxCell>
        <mxCell id="xklGR3EyqK50y4K4-iU5-32" value="" style="rounded=1;whiteSpace=wrap;html=1;" parent="1" vertex="1">
          <mxGeometry x="450" y="310" width="140" height="70" as="geometry" />
        </mxCell>
        <mxCell id="xklGR3EyqK50y4K4-iU5-33" value="" style="edgeStyle=orthogonalEdgeStyle;rounded=0;orthogonalLoop=1;jettySize=auto;html=1;" parent="1" source="xklGR3EyqK50y4K4-iU5-34" target="xklGR3EyqK50y4K4-iU5-36" edge="1">
          <mxGeometry relative="1" as="geometry" />
        </mxCell>
        <mxCell id="xklGR3EyqK50y4K4-iU5-34" value="" style="rounded=1;whiteSpace=wrap;html=1;" parent="1" vertex="1">
          <mxGeometry x="630" y="310" width="140" height="70" as="geometry" />
        </mxCell>
        <mxCell id="xklGR3EyqK50y4K4-iU5-35" style="edgeStyle=orthogonalEdgeStyle;rounded=0;orthogonalLoop=1;jettySize=auto;html=1;" parent="1" target="xklGR3EyqK50y4K4-iU5-38" edge="1">
          <mxGeometry relative="1" as="geometry">
            <mxPoint x="140" y="415" as="targetPoint" />
            <mxPoint x="932.02" y="330" as="sourcePoint" />
            <Array as="points">
              <mxPoint x="932" y="350" />
              <mxPoint x="960" y="350" />
              <mxPoint x="960" y="415" />
              <mxPoint x="150" y="415" />
            </Array>
          </mxGeometry>
        </mxCell>
        <mxCell id="xklGR3EyqK50y4K4-iU5-36" value="" style="rounded=1;whiteSpace=wrap;html=1;" parent="1" vertex="1">
          <mxGeometry x="810" y="310" width="140" height="70" as="geometry" />
        </mxCell>
        <mxCell id="xklGR3EyqK50y4K4-iU5-37" value="" style="edgeStyle=orthogonalEdgeStyle;rounded=0;orthogonalLoop=1;jettySize=auto;html=1;" parent="1" source="xklGR3EyqK50y4K4-iU5-38" target="xklGR3EyqK50y4K4-iU5-40" edge="1">
          <mxGeometry relative="1" as="geometry" />
        </mxCell>
        <mxCell id="xklGR3EyqK50y4K4-iU5-38" value="" style="rounded=1;whiteSpace=wrap;html=1;" parent="1" vertex="1">
          <mxGeometry x="80" y="430" width="140" height="70" as="geometry" />
        </mxCell>
        <mxCell id="xklGR3EyqK50y4K4-iU5-39" value="" style="edgeStyle=orthogonalEdgeStyle;rounded=0;orthogonalLoop=1;jettySize=auto;html=1;" parent="1" source="xklGR3EyqK50y4K4-iU5-40" target="xklGR3EyqK50y4K4-iU5-42" edge="1">
          <mxGeometry relative="1" as="geometry" />
        </mxCell>
        <mxCell id="xklGR3EyqK50y4K4-iU5-40" value="" style="rounded=1;whiteSpace=wrap;html=1;" parent="1" vertex="1">
          <mxGeometry x="260" y="430" width="140" height="70" as="geometry" />
        </mxCell>
        <mxCell id="xklGR3EyqK50y4K4-iU5-41" value="" style="edgeStyle=orthogonalEdgeStyle;rounded=0;orthogonalLoop=1;jettySize=auto;html=1;" parent="1" source="xklGR3EyqK50y4K4-iU5-42" target="xklGR3EyqK50y4K4-iU5-43" edge="1">
          <mxGeometry relative="1" as="geometry" />
        </mxCell>
        <mxCell id="xklGR3EyqK50y4K4-iU5-42" value="" style="rounded=1;whiteSpace=wrap;html=1;" parent="1" vertex="1">
          <mxGeometry x="450" y="430" width="140" height="70" as="geometry" />
        </mxCell>
        <mxCell id="xklGR3EyqK50y4K4-iU5-43" value="" style="rounded=1;whiteSpace=wrap;html=1;" parent="1" vertex="1">
          <mxGeometry x="630" y="430" width="140" height="70" as="geometry" />
        </mxCell>
        <mxCell id="xklGR3EyqK50y4K4-iU5-44" value="" style="rounded=1;whiteSpace=wrap;html=1;" parent="1" vertex="1">
          <mxGeometry x="810" y="430" width="140" height="70" as="geometry" />
        </mxCell>
        <mxCell id="xklGR3EyqK50y4K4-iU5-48" style="edgeStyle=orthogonalEdgeStyle;rounded=0;orthogonalLoop=1;jettySize=auto;html=1;entryX=0.5;entryY=0;entryDx=0;entryDy=0;" parent="1" target="xklGR3EyqK50y4K4-iU5-28" edge="1">
          <mxGeometry relative="1" as="geometry">
            <mxPoint x="170" y="300" as="targetPoint" />
            <mxPoint x="952" y="230" as="sourcePoint" />
            <Array as="points">
              <mxPoint x="960" y="230" />
              <mxPoint x="960" y="285" />
              <mxPoint x="150" y="285" />
            </Array>
          </mxGeometry>
        </mxCell>
      </root>
    </mxGraphModel>
  </diagram>
</mxfile>
